<mxfile host="app.diagrams.net" modified="2023-12-27T18:47:36.962Z" agent="Mozilla/5.0 (Windows NT 10.0; Win64; x64; rv:121.0) Gecko/20100101 Firefox/121.0" etag="IfI-ssNSPdb4h5aqOQ0W" version="22.1.15" type="device">
  <diagram name="PÃ¡gina-1" id="nEiTEiHMJ8dBqg_Z5OWv">
    <mxGraphModel dx="1194" dy="716" grid="1" gridSize="10" guides="1" tooltips="1" connect="1" arrows="1" fold="1" page="1" pageScale="1" pageWidth="827" pageHeight="1169" math="0" shadow="0">
      <root>
        <mxCell id="0" />
        <mxCell id="1" parent="0" />
        <mxCell id="6xt9vPgQkjdCSrtItJsC-1" value="" style="ellipse;whiteSpace=wrap;html=1;perimeterSpacing=0;strokeWidth=4;" vertex="1" parent="1">
          <mxGeometry x="390" y="80" width="100" height="440" as="geometry" />
        </mxCell>
        <mxCell id="6xt9vPgQkjdCSrtItJsC-3" value="" style="endArrow=classic;html=1;rounded=0;strokeWidth=4;" edge="1" parent="1">
          <mxGeometry width="50" height="50" relative="1" as="geometry">
            <mxPoint x="490" y="310" as="sourcePoint" />
            <mxPoint x="490" y="290" as="targetPoint" />
          </mxGeometry>
        </mxCell>
        <mxCell id="6xt9vPgQkjdCSrtItJsC-4" value="" style="endArrow=classic;html=1;rounded=0;strokeWidth=4;" edge="1" parent="1">
          <mxGeometry width="50" height="50" relative="1" as="geometry">
            <mxPoint x="390" y="290" as="sourcePoint" />
            <mxPoint x="390" y="310" as="targetPoint" />
          </mxGeometry>
        </mxCell>
        <mxCell id="6xt9vPgQkjdCSrtItJsC-5" value="&lt;b&gt;&lt;font style=&quot;font-size: 14px;&quot;&gt;RR&lt;/font&gt;&lt;/b&gt;" style="ellipse;whiteSpace=wrap;html=1;strokeWidth=4;" vertex="1" parent="1">
          <mxGeometry x="590" y="290" width="70" height="70" as="geometry" />
        </mxCell>
        <mxCell id="6xt9vPgQkjdCSrtItJsC-6" value="&lt;b&gt;&lt;font style=&quot;font-size: 16px;&quot;&gt;400&lt;/font&gt;&lt;/b&gt;" style="rounded=0;whiteSpace=wrap;html=1;strokeWidth=4;fillColor=#ffe6cc;strokeColor=#d79b00;" vertex="1" parent="1">
          <mxGeometry x="40" y="126" width="70" height="30" as="geometry" />
        </mxCell>
        <mxCell id="6xt9vPgQkjdCSrtItJsC-7" value="&lt;b&gt;&lt;font style=&quot;font-size: 16px;&quot;&gt;300&lt;/font&gt;&lt;/b&gt;" style="rounded=0;whiteSpace=wrap;html=1;strokeWidth=4;fillColor=#e1d5e7;strokeColor=#9673a6;" vertex="1" parent="1">
          <mxGeometry x="46" y="240" width="54" height="30" as="geometry" />
        </mxCell>
        <mxCell id="6xt9vPgQkjdCSrtItJsC-8" value="&lt;font size=&quot;1&quot;&gt;&lt;b style=&quot;font-size: 15px;&quot;&gt;500&lt;/b&gt;&lt;/font&gt;" style="rounded=0;whiteSpace=wrap;html=1;strokeWidth=4;fillColor=#d5e8d4;strokeColor=#82b366;" vertex="1" parent="1">
          <mxGeometry x="40" y="360" width="90" height="30" as="geometry" />
        </mxCell>
        <mxCell id="6xt9vPgQkjdCSrtItJsC-9" value="&lt;b&gt;&lt;font style=&quot;font-size: 16px;&quot;&gt;350&lt;/font&gt;&lt;/b&gt;" style="rounded=0;whiteSpace=wrap;html=1;strokeWidth=4;fillColor=#dae8fc;strokeColor=#6c8ebf;" vertex="1" parent="1">
          <mxGeometry x="40" y="480" width="60" height="30" as="geometry" />
        </mxCell>
        <mxCell id="6xt9vPgQkjdCSrtItJsC-10" value="&lt;b&gt;&lt;font style=&quot;font-size: 15px;&quot;&gt;500&lt;/font&gt;&lt;/b&gt;" style="rounded=0;whiteSpace=wrap;html=1;strokeWidth=4;fillColor=#ffe6cc;strokeColor=#d79b00;" vertex="1" parent="1">
          <mxGeometry x="114" y="126" width="86" height="30" as="geometry" />
        </mxCell>
        <mxCell id="6xt9vPgQkjdCSrtItJsC-11" value="&lt;b&gt;&lt;font style=&quot;font-size: 16px;&quot;&gt;300&lt;/font&gt;&lt;/b&gt;" style="rounded=0;whiteSpace=wrap;html=1;strokeWidth=4;fillColor=#ffe6cc;strokeColor=#d79b00;" vertex="1" parent="1">
          <mxGeometry x="200" y="126" width="57" height="30" as="geometry" />
        </mxCell>
        <mxCell id="6xt9vPgQkjdCSrtItJsC-12" value="&lt;b&gt;&lt;font style=&quot;font-size: 16px;&quot;&gt;400&lt;/font&gt;&lt;/b&gt;" style="rounded=0;whiteSpace=wrap;html=1;strokeWidth=4;fillColor=#e1d5e7;strokeColor=#9673a6;" vertex="1" parent="1">
          <mxGeometry x="103" y="240" width="67" height="30" as="geometry" />
        </mxCell>
        <mxCell id="6xt9vPgQkjdCSrtItJsC-13" value="&lt;div&gt;&lt;b&gt;&lt;font style=&quot;font-size: 16px;&quot;&gt;300&lt;/font&gt;&lt;/b&gt;&lt;/div&gt;" style="rounded=0;whiteSpace=wrap;html=1;strokeWidth=4;fillColor=#e1d5e7;strokeColor=#9673a6;" vertex="1" parent="1">
          <mxGeometry x="173" y="240" width="43" height="30" as="geometry" />
        </mxCell>
        <mxCell id="6xt9vPgQkjdCSrtItJsC-14" value="&lt;b&gt;&lt;font style=&quot;font-size: 16px;&quot;&gt;400&lt;/font&gt;&lt;/b&gt;" style="rounded=0;whiteSpace=wrap;html=1;strokeWidth=4;fillColor=#d5e8d4;strokeColor=#82b366;" vertex="1" parent="1">
          <mxGeometry x="130" y="360" width="80" height="30" as="geometry" />
        </mxCell>
        <mxCell id="6xt9vPgQkjdCSrtItJsC-15" value="&lt;font size=&quot;1&quot;&gt;&lt;b style=&quot;font-size: 16px;&quot;&gt;250&lt;/b&gt;&lt;/font&gt;" style="rounded=0;whiteSpace=wrap;html=1;strokeWidth=4;fillColor=#d5e8d4;strokeColor=#82b366;" vertex="1" parent="1">
          <mxGeometry x="210" y="360" width="47" height="30" as="geometry" />
        </mxCell>
        <mxCell id="6xt9vPgQkjdCSrtItJsC-16" value="&lt;b&gt;&lt;font style=&quot;font-size: 16px;&quot;&gt;200&lt;/font&gt;&lt;/b&gt;" style="rounded=0;whiteSpace=wrap;html=1;strokeWidth=4;fillColor=#dae8fc;strokeColor=#6c8ebf;" vertex="1" parent="1">
          <mxGeometry x="100" y="480" width="40" height="30" as="geometry" />
        </mxCell>
        <mxCell id="6xt9vPgQkjdCSrtItJsC-17" value="&lt;b&gt;&lt;font style=&quot;font-size: 16px;&quot;&gt;650&lt;/font&gt;&lt;/b&gt;" style="rounded=0;whiteSpace=wrap;html=1;strokeWidth=4;fillColor=#dae8fc;strokeColor=#6c8ebf;" vertex="1" parent="1">
          <mxGeometry x="140" y="480" width="117" height="30" as="geometry" />
        </mxCell>
        <mxCell id="6xt9vPgQkjdCSrtItJsC-19" value="&lt;b&gt;&lt;font style=&quot;font-size: 16px;&quot;&gt;200&lt;/font&gt;&lt;/b&gt;" style="rounded=0;whiteSpace=wrap;html=1;strokeWidth=4;fillColor=#e1d5e7;strokeColor=#9673a6;" vertex="1" parent="1">
          <mxGeometry x="220" y="240" width="40" height="30" as="geometry" />
        </mxCell>
        <mxCell id="6xt9vPgQkjdCSrtItJsC-20" value="&lt;font style=&quot;font-size: 16px;&quot;&gt;&lt;b&gt;A&lt;/b&gt;&lt;/font&gt;" style="text;html=1;strokeColor=none;fillColor=none;align=center;verticalAlign=middle;whiteSpace=wrap;rounded=0;" vertex="1" parent="1">
          <mxGeometry x="250" y="96" width="60" height="30" as="geometry" />
        </mxCell>
        <mxCell id="6xt9vPgQkjdCSrtItJsC-21" value="A3" style="text;html=1;strokeColor=none;fillColor=none;align=center;verticalAlign=middle;whiteSpace=wrap;rounded=0;fontSize=16;fontStyle=1" vertex="1" parent="1">
          <mxGeometry x="40" y="80" width="60" height="30" as="geometry" />
        </mxCell>
        <mxCell id="6xt9vPgQkjdCSrtItJsC-22" value="A2" style="text;html=1;strokeColor=none;fillColor=none;align=center;verticalAlign=middle;whiteSpace=wrap;rounded=0;fontSize=16;fontStyle=1" vertex="1" parent="1">
          <mxGeometry x="127" y="80" width="60" height="30" as="geometry" />
        </mxCell>
        <mxCell id="6xt9vPgQkjdCSrtItJsC-23" value="A1" style="text;html=1;strokeColor=none;fillColor=none;align=center;verticalAlign=middle;whiteSpace=wrap;rounded=0;fontSize=16;fontStyle=1" vertex="1" parent="1">
          <mxGeometry x="200" y="80" width="60" height="30" as="geometry" />
        </mxCell>
        <mxCell id="6xt9vPgQkjdCSrtItJsC-24" value="B4" style="text;html=1;strokeColor=none;fillColor=none;align=center;verticalAlign=middle;whiteSpace=wrap;rounded=0;fontSize=16;fontStyle=1" vertex="1" parent="1">
          <mxGeometry x="46" y="200" width="60" height="30" as="geometry" />
        </mxCell>
        <mxCell id="6xt9vPgQkjdCSrtItJsC-26" value="B3" style="text;html=1;strokeColor=none;fillColor=none;align=center;verticalAlign=middle;whiteSpace=wrap;rounded=0;fontSize=16;fontStyle=1" vertex="1" parent="1">
          <mxGeometry x="106" y="200" width="60" height="30" as="geometry" />
        </mxCell>
        <mxCell id="6xt9vPgQkjdCSrtItJsC-27" value="B2" style="text;html=1;strokeColor=none;fillColor=none;align=center;verticalAlign=middle;whiteSpace=wrap;rounded=0;fontSize=16;fontStyle=1" vertex="1" parent="1">
          <mxGeometry x="160" y="200" width="60" height="30" as="geometry" />
        </mxCell>
        <mxCell id="6xt9vPgQkjdCSrtItJsC-28" value="B1" style="text;html=1;strokeColor=none;fillColor=none;align=center;verticalAlign=middle;whiteSpace=wrap;rounded=0;fontSize=16;fontStyle=1" vertex="1" parent="1">
          <mxGeometry x="210" y="200" width="60" height="30" as="geometry" />
        </mxCell>
        <mxCell id="6xt9vPgQkjdCSrtItJsC-29" value="B" style="text;html=1;strokeColor=none;fillColor=none;align=center;verticalAlign=middle;whiteSpace=wrap;rounded=0;fontSize=16;fontStyle=1" vertex="1" parent="1">
          <mxGeometry x="250" y="210" width="60" height="30" as="geometry" />
        </mxCell>
        <mxCell id="6xt9vPgQkjdCSrtItJsC-30" value="C" style="text;html=1;strokeColor=none;fillColor=none;align=center;verticalAlign=middle;whiteSpace=wrap;rounded=0;fontSize=16;fontStyle=1" vertex="1" parent="1">
          <mxGeometry x="250" y="330" width="60" height="30" as="geometry" />
        </mxCell>
        <mxCell id="6xt9vPgQkjdCSrtItJsC-31" value="D" style="text;html=1;strokeColor=none;fillColor=none;align=center;verticalAlign=middle;whiteSpace=wrap;rounded=0;fontSize=16;fontStyle=1" vertex="1" parent="1">
          <mxGeometry x="250" y="450" width="60" height="30" as="geometry" />
        </mxCell>
        <mxCell id="6xt9vPgQkjdCSrtItJsC-32" value="C3" style="text;html=1;strokeColor=none;fillColor=none;align=center;verticalAlign=middle;whiteSpace=wrap;rounded=0;fontSize=16;fontStyle=1" vertex="1" parent="1">
          <mxGeometry x="43" y="320" width="60" height="30" as="geometry" />
        </mxCell>
        <mxCell id="6xt9vPgQkjdCSrtItJsC-33" value="C2" style="text;html=1;strokeColor=none;fillColor=none;align=center;verticalAlign=middle;whiteSpace=wrap;rounded=0;fontSize=16;fontStyle=1" vertex="1" parent="1">
          <mxGeometry x="140" y="320" width="60" height="30" as="geometry" />
        </mxCell>
        <mxCell id="6xt9vPgQkjdCSrtItJsC-34" value="C1" style="text;html=1;strokeColor=none;fillColor=none;align=center;verticalAlign=middle;whiteSpace=wrap;rounded=0;fontSize=16;fontStyle=1" vertex="1" parent="1">
          <mxGeometry x="203.5" y="320" width="60" height="30" as="geometry" />
        </mxCell>
        <mxCell id="6xt9vPgQkjdCSrtItJsC-35" value="D3" style="text;html=1;strokeColor=none;fillColor=none;align=center;verticalAlign=middle;whiteSpace=wrap;rounded=0;fontSize=16;fontStyle=1" vertex="1" parent="1">
          <mxGeometry x="37" y="440" width="60" height="30" as="geometry" />
        </mxCell>
        <mxCell id="6xt9vPgQkjdCSrtItJsC-36" value="D2" style="text;html=1;strokeColor=none;fillColor=none;align=center;verticalAlign=middle;whiteSpace=wrap;rounded=0;fontSize=16;fontStyle=1" vertex="1" parent="1">
          <mxGeometry x="90" y="440" width="60" height="30" as="geometry" />
        </mxCell>
        <mxCell id="6xt9vPgQkjdCSrtItJsC-37" value="D1" style="text;html=1;strokeColor=none;fillColor=none;align=center;verticalAlign=middle;whiteSpace=wrap;rounded=0;fontSize=16;fontStyle=1" vertex="1" parent="1">
          <mxGeometry x="173" y="440" width="60" height="30" as="geometry" />
        </mxCell>
        <mxCell id="6xt9vPgQkjdCSrtItJsC-39" value="" style="endArrow=classic;html=1;rounded=0;strokeWidth=4;" edge="1" parent="1">
          <mxGeometry width="50" height="50" relative="1" as="geometry">
            <mxPoint x="630" y="290" as="sourcePoint" />
            <mxPoint x="470" y="120" as="targetPoint" />
          </mxGeometry>
        </mxCell>
        <mxCell id="6xt9vPgQkjdCSrtItJsC-40" value="" style="endArrow=classic;html=1;rounded=0;strokeWidth=4;exitX=0.5;exitY=1;exitDx=0;exitDy=0;entryX=0.68;entryY=0.973;entryDx=0;entryDy=0;entryPerimeter=0;" edge="1" parent="1" source="6xt9vPgQkjdCSrtItJsC-5" target="6xt9vPgQkjdCSrtItJsC-1">
          <mxGeometry width="50" height="50" relative="1" as="geometry">
            <mxPoint x="640" y="375" as="sourcePoint" />
            <mxPoint x="470" y="510" as="targetPoint" />
          </mxGeometry>
        </mxCell>
        <mxCell id="6xt9vPgQkjdCSrtItJsC-41" value="" style="endArrow=classic;html=1;rounded=0;strokeWidth=4;" edge="1" parent="1">
          <mxGeometry width="50" height="50" relative="1" as="geometry">
            <mxPoint x="740" y="160" as="sourcePoint" />
            <mxPoint x="1120" y="160" as="targetPoint" />
          </mxGeometry>
        </mxCell>
        <mxCell id="6xt9vPgQkjdCSrtItJsC-42" value="&lt;b&gt;&lt;font style=&quot;font-size: 16px;&quot;&gt;300&lt;/font&gt;&lt;/b&gt;" style="rounded=0;whiteSpace=wrap;html=1;strokeWidth=4;fillColor=#ffe6cc;strokeColor=#d79b00;" vertex="1" parent="1">
          <mxGeometry x="740" y="116" width="57" height="30" as="geometry" />
        </mxCell>
        <mxCell id="6xt9vPgQkjdCSrtItJsC-43" value="A1" style="text;html=1;strokeColor=none;fillColor=none;align=center;verticalAlign=middle;whiteSpace=wrap;rounded=0;fontSize=16;fontStyle=1" vertex="1" parent="1">
          <mxGeometry x="737" y="80" width="60" height="30" as="geometry" />
        </mxCell>
        <mxCell id="6xt9vPgQkjdCSrtItJsC-44" value="&lt;b&gt;&lt;font style=&quot;font-size: 16px;&quot;&gt;200&lt;/font&gt;&lt;/b&gt;" style="rounded=0;whiteSpace=wrap;html=1;strokeWidth=4;fillColor=#e1d5e7;strokeColor=#9673a6;" vertex="1" parent="1">
          <mxGeometry x="837" y="116" width="40" height="30" as="geometry" />
        </mxCell>
        <mxCell id="6xt9vPgQkjdCSrtItJsC-45" value="B1" style="text;html=1;strokeColor=none;fillColor=none;align=center;verticalAlign=middle;whiteSpace=wrap;rounded=0;fontSize=16;fontStyle=1" vertex="1" parent="1">
          <mxGeometry x="827" y="76" width="60" height="30" as="geometry" />
        </mxCell>
        <mxCell id="6xt9vPgQkjdCSrtItJsC-46" value="&lt;font size=&quot;1&quot;&gt;&lt;b style=&quot;font-size: 16px;&quot;&gt;250&lt;/b&gt;&lt;/font&gt;" style="rounded=0;whiteSpace=wrap;html=1;strokeWidth=4;fillColor=#d5e8d4;strokeColor=#82b366;" vertex="1" parent="1">
          <mxGeometry x="906.5" y="116" width="47" height="30" as="geometry" />
        </mxCell>
        <mxCell id="6xt9vPgQkjdCSrtItJsC-47" value="C1" style="text;html=1;strokeColor=none;fillColor=none;align=center;verticalAlign=middle;whiteSpace=wrap;rounded=0;fontSize=16;fontStyle=1" vertex="1" parent="1">
          <mxGeometry x="901" y="76" width="60" height="30" as="geometry" />
        </mxCell>
        <mxCell id="6xt9vPgQkjdCSrtItJsC-48" value="&lt;b&gt;&lt;font style=&quot;font-size: 16px;&quot;&gt;650&lt;/font&gt;&lt;/b&gt;" style="rounded=0;whiteSpace=wrap;html=1;strokeWidth=4;fillColor=#dae8fc;strokeColor=#6c8ebf;" vertex="1" parent="1">
          <mxGeometry x="980" y="116" width="117" height="30" as="geometry" />
        </mxCell>
        <mxCell id="6xt9vPgQkjdCSrtItJsC-49" value="D1" style="text;html=1;strokeColor=none;fillColor=none;align=center;verticalAlign=middle;whiteSpace=wrap;rounded=0;fontSize=16;fontStyle=1" vertex="1" parent="1">
          <mxGeometry x="1013" y="76" width="60" height="30" as="geometry" />
        </mxCell>
        <mxCell id="6xt9vPgQkjdCSrtItJsC-50" value="&lt;b&gt;&lt;font style=&quot;font-size: 16px;&quot;&gt;ROUND 1&lt;/font&gt;&lt;/b&gt;" style="text;html=1;strokeColor=none;fillColor=none;align=center;verticalAlign=middle;whiteSpace=wrap;rounded=0;" vertex="1" parent="1">
          <mxGeometry x="890" y="170" width="80" height="30" as="geometry" />
        </mxCell>
        <mxCell id="6xt9vPgQkjdCSrtItJsC-51" value="" style="endArrow=classic;html=1;rounded=0;strokeWidth=4;" edge="1" parent="1">
          <mxGeometry width="50" height="50" relative="1" as="geometry">
            <mxPoint x="737" y="361" as="sourcePoint" />
            <mxPoint x="1117" y="361" as="targetPoint" />
          </mxGeometry>
        </mxCell>
        <mxCell id="6xt9vPgQkjdCSrtItJsC-52" value="&lt;b&gt;&lt;font style=&quot;font-size: 16px;&quot;&gt;ROUND 2&lt;br&gt;&lt;/font&gt;&lt;/b&gt;" style="text;html=1;strokeColor=none;fillColor=none;align=center;verticalAlign=middle;whiteSpace=wrap;rounded=0;" vertex="1" parent="1">
          <mxGeometry x="887" y="371" width="80" height="30" as="geometry" />
        </mxCell>
        <mxCell id="6xt9vPgQkjdCSrtItJsC-53" value="&lt;b&gt;&lt;font style=&quot;font-size: 15px;&quot;&gt;500&lt;/font&gt;&lt;/b&gt;" style="rounded=0;whiteSpace=wrap;html=1;strokeWidth=4;fillColor=#ffe6cc;strokeColor=#d79b00;" vertex="1" parent="1">
          <mxGeometry x="739" y="317" width="86" height="30" as="geometry" />
        </mxCell>
        <mxCell id="6xt9vPgQkjdCSrtItJsC-54" value="A2" style="text;html=1;strokeColor=none;fillColor=none;align=center;verticalAlign=middle;whiteSpace=wrap;rounded=0;fontSize=16;fontStyle=1" vertex="1" parent="1">
          <mxGeometry x="752" y="271" width="60" height="30" as="geometry" />
        </mxCell>
        <mxCell id="6xt9vPgQkjdCSrtItJsC-55" value="&lt;div&gt;&lt;b&gt;&lt;font style=&quot;font-size: 16px;&quot;&gt;300&lt;/font&gt;&lt;/b&gt;&lt;/div&gt;" style="rounded=0;whiteSpace=wrap;html=1;strokeWidth=4;fillColor=#e1d5e7;strokeColor=#9673a6;" vertex="1" parent="1">
          <mxGeometry x="850" y="317" width="43" height="30" as="geometry" />
        </mxCell>
        <mxCell id="6xt9vPgQkjdCSrtItJsC-56" value="B2" style="text;html=1;strokeColor=none;fillColor=none;align=center;verticalAlign=middle;whiteSpace=wrap;rounded=0;fontSize=16;fontStyle=1" vertex="1" parent="1">
          <mxGeometry x="842" y="277" width="60" height="30" as="geometry" />
        </mxCell>
        <mxCell id="6xt9vPgQkjdCSrtItJsC-57" value="&lt;b&gt;&lt;font style=&quot;font-size: 16px;&quot;&gt;400&lt;/font&gt;&lt;/b&gt;" style="rounded=0;whiteSpace=wrap;html=1;strokeWidth=4;fillColor=#d5e8d4;strokeColor=#82b366;" vertex="1" parent="1">
          <mxGeometry x="916" y="319" width="80" height="30" as="geometry" />
        </mxCell>
        <mxCell id="6xt9vPgQkjdCSrtItJsC-58" value="C2" style="text;html=1;strokeColor=none;fillColor=none;align=center;verticalAlign=middle;whiteSpace=wrap;rounded=0;fontSize=16;fontStyle=1" vertex="1" parent="1">
          <mxGeometry x="923" y="279" width="60" height="30" as="geometry" />
        </mxCell>
        <mxCell id="6xt9vPgQkjdCSrtItJsC-60" value="&lt;b&gt;&lt;font style=&quot;font-size: 16px;&quot;&gt;200&lt;/font&gt;&lt;/b&gt;" style="rounded=0;whiteSpace=wrap;html=1;strokeWidth=4;fillColor=#dae8fc;strokeColor=#6c8ebf;" vertex="1" parent="1">
          <mxGeometry x="1025" y="321" width="40" height="30" as="geometry" />
        </mxCell>
        <mxCell id="6xt9vPgQkjdCSrtItJsC-61" value="D2" style="text;html=1;strokeColor=none;fillColor=none;align=center;verticalAlign=middle;whiteSpace=wrap;rounded=0;fontSize=16;fontStyle=1" vertex="1" parent="1">
          <mxGeometry x="1010" y="281" width="60" height="30" as="geometry" />
        </mxCell>
        <mxCell id="6xt9vPgQkjdCSrtItJsC-62" value="" style="endArrow=classic;html=1;rounded=0;strokeWidth=4;" edge="1" parent="1">
          <mxGeometry width="50" height="50" relative="1" as="geometry">
            <mxPoint x="736" y="519" as="sourcePoint" />
            <mxPoint x="1116" y="519" as="targetPoint" />
          </mxGeometry>
        </mxCell>
        <mxCell id="6xt9vPgQkjdCSrtItJsC-63" value="&lt;b&gt;&lt;font style=&quot;font-size: 16px;&quot;&gt;ROUND 2&lt;br&gt;&lt;/font&gt;&lt;/b&gt;" style="text;html=1;strokeColor=none;fillColor=none;align=center;verticalAlign=middle;whiteSpace=wrap;rounded=0;" vertex="1" parent="1">
          <mxGeometry x="886" y="529" width="80" height="30" as="geometry" />
        </mxCell>
        <mxCell id="6xt9vPgQkjdCSrtItJsC-66" value="&lt;b&gt;&lt;font style=&quot;font-size: 16px;&quot;&gt;400&lt;/font&gt;&lt;/b&gt;" style="rounded=0;whiteSpace=wrap;html=1;strokeWidth=4;fillColor=#ffe6cc;strokeColor=#d79b00;" vertex="1" parent="1">
          <mxGeometry x="740" y="476" width="70" height="30" as="geometry" />
        </mxCell>
        <mxCell id="6xt9vPgQkjdCSrtItJsC-67" value="A3" style="text;html=1;strokeColor=none;fillColor=none;align=center;verticalAlign=middle;whiteSpace=wrap;rounded=0;fontSize=16;fontStyle=1" vertex="1" parent="1">
          <mxGeometry x="740" y="430" width="60" height="30" as="geometry" />
        </mxCell>
        <mxCell id="6xt9vPgQkjdCSrtItJsC-70" value="&lt;b&gt;&lt;font style=&quot;font-size: 16px;&quot;&gt;400&lt;/font&gt;&lt;/b&gt;" style="rounded=0;whiteSpace=wrap;html=1;strokeWidth=4;fillColor=#e1d5e7;strokeColor=#9673a6;" vertex="1" parent="1">
          <mxGeometry x="842" y="476" width="67" height="30" as="geometry" />
        </mxCell>
        <mxCell id="6xt9vPgQkjdCSrtItJsC-71" value="B3" style="text;html=1;strokeColor=none;fillColor=none;align=center;verticalAlign=middle;whiteSpace=wrap;rounded=0;fontSize=16;fontStyle=1" vertex="1" parent="1">
          <mxGeometry x="845" y="436" width="60" height="30" as="geometry" />
        </mxCell>
        <mxCell id="6xt9vPgQkjdCSrtItJsC-72" value="&lt;b&gt;&lt;font style=&quot;font-size: 16px;&quot;&gt;350&lt;/font&gt;&lt;/b&gt;" style="rounded=0;whiteSpace=wrap;html=1;strokeWidth=4;fillColor=#dae8fc;strokeColor=#6c8ebf;" vertex="1" parent="1">
          <mxGeometry x="950" y="480" width="60" height="30" as="geometry" />
        </mxCell>
        <mxCell id="6xt9vPgQkjdCSrtItJsC-73" value="D3" style="text;html=1;strokeColor=none;fillColor=none;align=center;verticalAlign=middle;whiteSpace=wrap;rounded=0;fontSize=16;fontStyle=1" vertex="1" parent="1">
          <mxGeometry x="947" y="440" width="60" height="30" as="geometry" />
        </mxCell>
      </root>
    </mxGraphModel>
  </diagram>
</mxfile>
